<svg width="18" height="18" viewBox="0 0 18 18" fill="none" xmlns="http://www.w3.org/2000/svg">
<path d="M15.3509 16.3908C13.5934 18.1483 9.09239 16.4969 5.2977 12.7022C1.50302 8.90751 -0.148411 4.40655 1.60912 2.64901L2.76632 1.4918C3.5652 0.692923 4.88156 0.71404 5.7065 1.53897L7.4989 3.33138C8.32383 4.15631 8.34495 5.47267 7.54607 6.27155L7.29751 6.5201C6.86619 6.95143 6.82399 7.64725 7.22477 8.13292C7.61135 8.60139 8.02812 9.06801 8.48 9.51989C8.93188 9.97177 9.3985 10.3885 9.86697 10.7751C10.3526 11.1759 11.0485 11.1337 11.4798 10.7024L11.7283 10.4538C12.5272 9.65494 13.8436 9.67606 14.6685 10.501L16.4609 12.2934C17.2859 13.1183 17.307 14.4347 16.5081 15.2336L15.3509 16.3908Z" stroke="#747474"/>
<path d="M13.1652 7.38656C12.931 6.81521 12.582 6.27991 12.118 5.81599C11.6803 5.37827 11.1791 5.0428 10.6439 4.80957" stroke="#747474" stroke-linecap="round"/>
<path d="M10.644 1.54294C11.9252 2.00708 13.1273 2.75272 14.1544 3.77986C15.2073 4.83278 15.9644 6.06953 16.4258 7.38688" stroke="#747474" stroke-linecap="round"/>
</svg>
