<svg width="30" height="27" viewBox="0 0 30 27" fill="none" xmlns="http://www.w3.org/2000/svg">
<path d="M0.93615 0.058815C0.52998 -0.022419 0.134861 0.240994 0.053627 0.647163C-0.027607 1.05333 0.235806 1.44845 0.641975 1.52969L0.93615 0.058815ZM4.75196 5.74788L4.00569 5.82251L4.00642 5.82988L4.00731 5.83724L4.75196 5.74788ZM28.0198 10.0507L27.2922 9.8688L28.0198 10.0507ZM26.5551 15.9095L25.8275 15.7276L26.5551 15.9095ZM0.641975 1.52969L1.99616 1.80052L2.29033 0.329651L0.93615 0.058815L0.641975 1.52969ZM9.12186 20.6511H21.4428V19.1511H9.12186V20.6511ZM27.2827 16.0914L28.7474 10.2326L27.2922 9.8688L25.8275 15.7276L27.2827 16.0914ZM3.80272 3.79286L4.00569 5.82251L5.49824 5.67325L5.29528 3.64361L3.80272 3.79286ZM4.00731 5.83724L5.3874 17.338L6.87671 17.1593L5.49662 5.65852L4.00731 5.83724ZM24.6602 4.99788H4.75196V6.49788H24.6602V4.99788ZM28.7474 10.2326C29.4121 7.57362 27.4011 4.99788 24.6602 4.99788V6.49788C26.4252 6.49788 27.7203 8.15654 27.2922 9.8688L28.7474 10.2326ZM21.4428 20.6511C24.205 20.6511 26.6128 18.7712 27.2827 16.0914L25.8275 15.7276C25.3245 17.7396 23.5167 19.1511 21.4428 19.1511V20.6511ZM9.12186 19.1511C7.97721 19.1511 7.01309 18.2958 6.87671 17.1593L5.3874 17.338C5.61424 19.2284 7.21791 20.6511 9.12186 20.6511V19.1511ZM1.99616 1.80052C2.97076 1.99544 3.70383 2.80389 3.80272 3.79286L5.29528 3.64361C5.13078 1.99861 3.91143 0.653871 2.29033 0.329651L1.99616 1.80052Z" fill="#6D2EFF"/>
<path d="M18.7061 15.531H9.67236" stroke="#6D2EFF" stroke-width="1.5" stroke-linecap="round" stroke-linejoin="round"/>
<circle cx="9.98871" cy="24.8547" r="2.12298" fill="#6D2EFF"/>
<circle cx="22.7267" cy="24.8547" r="2.12298" fill="#6D2EFF"/>
</svg>
