<svg width="61" height="26" viewBox="0 0 61 26" fill="none" xmlns="http://www.w3.org/2000/svg">
<path fill-rule="evenodd" clip-rule="evenodd" d="M36.4295 9.64925L36.5184 11.0483C36.5294 11.126 36.5294 11.1815 36.5294 11.2925C36.5294 11.4036 36.5516 11.4146 36.5516 11.5257C36.5516 11.8366 36.6072 12.1585 36.6072 12.4805L36.6405 12.9357C36.6626 13.1023 36.6626 13.2577 36.6626 13.4243C36.6626 13.5575 36.696 13.7463 36.707 13.8795L36.7404 14.5679C36.7404 14.6789 36.7625 14.7011 36.7625 14.801L36.8181 15.7559C36.8181 15.8669 36.8402 15.878 36.8402 15.989C36.8402 16.2666 36.8736 16.3998 36.8736 16.6996L36.918 17.177L34.9417 17.1769L35.3081 15.2895C35.3636 14.9675 35.4414 14.6677 35.4968 14.3457C35.519 14.1903 35.5524 14.0459 35.5857 13.8793C35.619 13.7128 35.6523 13.5685 35.6745 13.4019L36.0409 11.5145C36.1075 11.2037 36.1519 10.8817 36.2296 10.5707L36.3629 9.87122C36.374 9.82681 36.374 9.81573 36.3851 9.74911L36.4184 9.627L36.4295 9.64915L36.4295 9.64925ZM47.1327 12.9579H45.2118C45.1341 12.9579 45.1674 12.8913 45.1674 12.8025L45.3895 9.28287C45.3895 9.17184 45.4116 9.16076 45.4116 9.06081L45.4783 7.88392C45.4893 7.80617 45.4893 7.7396 45.4893 7.65073C45.4893 7.45092 45.5449 6.95125 45.5449 6.71811C45.5449 6.60713 45.567 6.58487 45.567 6.48497L45.5892 6.00755C45.6003 5.87432 45.6225 5.67446 45.6225 5.53014H47.6766C48.2428 5.53014 48.0763 5.95206 48.0763 6.39619L47.8209 10.371C47.8209 10.4598 47.832 10.5375 47.8209 10.6264C47.7654 11.126 47.7654 11.77 47.7099 12.2585C47.6766 12.5583 47.7987 12.9469 47.1326 12.9469V12.958L47.1327 12.9579ZM33.6982 23.3057C33.7426 23.0948 33.787 22.8616 33.8314 22.6507C33.8758 22.4175 33.9203 22.2065 33.9647 21.9734C34.0091 21.7513 34.0535 21.5293 34.098 21.2962C34.1424 21.0741 34.1868 20.8409 34.2423 20.63L37.1734 20.6299C37.1734 20.8187 37.2289 21.1185 37.2289 21.3072C37.24 21.6403 37.2955 21.9844 37.3067 22.3176C37.3178 22.5396 37.3622 22.7728 37.3622 23.0059C37.3622 23.1059 37.3511 23.3057 37.4399 23.3057H44.4458C44.5346 23.3057 44.5013 23.1503 44.5235 22.9282C44.5457 22.6507 44.5457 22.3509 44.579 22.0733C44.5902 22.0067 44.579 21.929 44.579 21.8624L44.6568 20.7854C44.6789 20.5856 44.6679 20.3302 44.7012 20.1303C44.7345 19.9194 44.7233 19.6973 44.7456 19.4753C44.7567 19.4086 44.7456 19.342 44.7567 19.2643L44.8677 17.5433C44.8677 17.4545 44.8677 17.399 44.8788 17.3102C44.9122 17.0659 44.9344 16.6774 44.9344 16.4331H45.4451C45.5228 16.4331 45.5116 16.533 45.5339 16.5996L46.1001 18.9756C46.1667 19.2531 46.2445 19.5752 46.3111 19.8527C46.5332 20.7187 46.7441 21.5737 46.9329 22.4508L47.0883 23.1058C47.1105 23.1836 47.0994 23.2946 47.1771 23.2946H51.585C51.585 23.1946 51.5072 22.9726 51.4739 22.8616L51.0187 21.1628C50.841 20.4412 50.619 19.7306 50.4414 19.0089C50.2637 18.2984 50.0416 17.5766 49.8751 16.8661C49.8418 16.7218 49.7863 16.5774 49.753 16.4331C50.297 16.4331 50.7078 16.2888 51.0076 16.0445C51.5073 15.6448 51.8181 15.0341 51.807 14.3569L52.0513 10.4709C52.0735 10.3488 52.0624 10.1933 52.0846 10.0823L52.129 9.29395C52.129 9.20512 52.1401 9.18297 52.1512 9.1163C52.1623 9.0386 52.1512 8.98306 52.1623 8.90536C52.1956 8.71663 52.1844 8.51678 52.1956 8.328L52.2511 7.55082C52.2622 7.36204 52.2622 7.13998 52.2844 6.95125L52.351 5.77436H53.6722C53.6722 6.14074 53.6167 6.49605 53.6167 6.86243L53.5389 7.95049C53.5168 8.13922 53.5279 8.31687 53.5168 8.5056L53.439 9.59366C53.439 9.79352 53.4279 9.98225 53.4057 10.1488L53.1393 14.5233C53.1171 14.6787 53.1171 14.9119 53.106 15.0674C53.106 15.1673 53.0838 15.2006 53.0838 15.3228L52.7285 21.0962C52.7174 21.2628 52.6841 21.4626 52.6841 21.6292L52.6175 22.7284C52.5953 22.8949 52.5842 23.0947 52.5842 23.2835H56.9366C57.0254 23.2835 56.9921 23.1614 56.9921 23.0614C56.9921 22.8838 57.0365 22.7062 57.0365 22.5063L57.1253 21.1296C57.1475 20.9852 57.1587 20.752 57.1587 20.5855C57.1587 20.4855 57.1808 20.4412 57.1808 20.3079C57.1808 20.1747 57.203 20.1414 57.203 20.0304C57.203 19.886 57.2141 19.6307 57.2363 19.4863C57.2696 19.2976 57.2474 19.1088 57.2696 18.92C57.2807 18.7535 57.3029 18.5648 57.3029 18.3871L57.3474 17.832C57.3474 17.7099 57.3585 17.6655 57.3695 17.5766L57.4139 16.7217C57.4361 16.3997 57.4805 15.9556 57.4917 15.6336L57.5472 14.5233C57.5583 14.3568 57.5916 14.1681 57.5916 13.9904C57.5916 13.8016 57.6249 13.6129 57.636 13.4353C57.6472 13.0467 57.6804 12.7136 57.6916 12.325L58.0802 6.29614C58.0913 6.19619 58.0913 6.11849 58.0913 6.00746C58.0913 5.9075 58.1134 5.86314 58.1134 5.7299H61.0002C60.9224 5.40793 60.8669 5.07484 60.7892 4.73066L60.4894 3.23176C60.4561 3.05411 60.4228 2.89866 60.3895 2.72106C60.3561 2.56561 60.3229 2.38796 60.2895 2.23252C60.2562 2.05487 60.2006 1.8883 60.2006 1.71069H52.2066C52.1955 1.78844 52.1733 1.84398 52.1511 1.91055C52.0845 2.09928 51.9957 2.31027 51.9512 2.499H51.9068C51.8847 2.42125 51.8069 2.36571 51.7514 2.31022C51.6293 2.18811 51.485 2.11041 51.3406 2.03266C50.9742 1.8106 50.3969 1.71069 49.9083 1.71069H41.5368C41.5368 2.0105 41.4923 2.24365 41.4923 2.5212C41.4923 2.61008 41.4812 2.64336 41.4812 2.69885C41.4701 2.7766 41.4812 2.84317 41.4701 2.90984C41.459 3.02082 41.4479 3.19852 41.4368 3.30955C41.4257 3.37612 41.4368 3.44279 41.4368 3.50936L41.3702 4.53085C41.3369 4.77512 41.3258 5.44132 41.3036 5.75216L41.2703 6.35173C41.2703 6.56266 41.2259 6.74032 41.2259 6.94012L41.1038 8.761C41.0927 9.09409 41.0372 9.43827 41.0482 9.77136C41.0482 10.1045 41.0038 10.4486 40.9927 10.7817L40.8373 13.1799C40.8373 13.6573 40.7595 14.1459 40.7595 14.6233H40.7374C40.7374 14.2236 40.5931 13.4686 40.5597 13.0245L40.5264 12.758C40.5153 12.647 40.5153 12.5915 40.5042 12.4916L40.1267 9.30508C40.0268 8.60555 39.9824 7.87279 39.8714 7.18439L39.8048 6.65149L39.2385 1.85506C39.2164 1.6552 39.1941 1.72182 38.7722 1.72182L34.5975 1.72177L33.8425 4.84165C33.2541 7.18434 32.71 9.53812 32.1215 11.8919C32.055 12.1473 31.9883 12.4138 31.9328 12.6692L30.7004 17.7432L30.6004 18.1428L29.4568 22.8393C29.4457 22.8726 29.3569 23.2279 29.3569 23.2279C29.368 23.2834 29.3569 23.2612 29.4234 23.2612H33.6981V23.3056L33.6982 23.3057Z" fill="#231F20"/>
<path fill-rule="evenodd" clip-rule="evenodd" d="M1.33342 21.0073C1.34455 20.9074 1.3667 20.8075 1.38896 20.7187L1.45553 20.3523C1.46666 20.2967 1.46666 20.2302 1.48886 20.1635C1.49994 20.108 1.51102 20.0636 1.52215 20.0192C1.53328 19.9193 1.55543 19.8194 1.56656 19.7084C1.57769 19.6084 1.61097 19.5085 1.6221 19.4308C1.6221 19.3642 1.72205 18.798 1.74421 18.7536C1.74421 18.6647 1.8775 17.8321 1.89966 17.7876C1.91078 17.6322 1.96623 17.4545 1.97735 17.2991C1.98848 17.1214 2.0551 16.8883 2.07731 16.7107C2.08844 16.5552 2.13285 16.3554 2.15505 16.1999C2.16618 16.1111 2.17721 16.0445 2.19947 15.9446C2.2106 15.878 2.2328 15.8113 2.2328 15.7225C2.26609 15.6115 2.27721 15.4005 2.3105 15.3117C2.32163 15.1451 2.36604 14.9786 2.38825 14.8121C2.39933 14.7454 2.4104 14.701 2.42153 14.6233C2.43266 14.5678 2.42153 14.5234 2.45487 14.5012C2.45487 14.3568 2.51036 14.2125 2.51036 14.0904C2.54369 13.9016 2.5881 13.7018 2.61031 13.513C2.63252 13.3798 2.65472 13.2577 2.67693 13.1244C2.68801 13.08 2.69909 12.9801 2.71021 12.9357C2.72134 12.8691 2.73242 12.8469 2.73242 12.7803C2.7435 12.6803 2.76571 12.5804 2.78791 12.4805C2.79904 12.4027 2.83232 12.2806 2.83232 12.2141C2.85453 12.103 2.87679 11.9809 2.88787 11.8809C2.89899 11.6588 2.98782 11.4368 2.98782 11.2037C3.00998 11.1481 3.04336 10.9594 3.04336 10.9039C3.06552 10.7928 3.08777 10.6707 3.0989 10.5708L3.19885 9.96013C3.20993 9.91572 3.20993 9.90459 3.20993 9.86018C3.20993 9.83797 3.20993 9.83797 3.22106 9.81577L3.23219 9.79356C3.23219 9.62704 3.28768 9.42718 3.30988 9.27173C3.30988 9.20516 3.36543 8.88315 3.38763 8.84981C3.38763 8.7055 3.43204 8.65001 3.43204 8.51672C3.44317 8.46118 3.48759 8.26137 3.48759 8.19475C3.48759 8.11705 3.50974 8.08377 3.52087 8.00602L3.6097 7.53969C3.6097 7.39537 3.6319 7.3287 3.65416 7.19546C3.66524 7.15105 3.69857 6.94006 3.70965 6.88462C3.72078 6.78467 3.74298 6.71805 3.75406 6.60707C3.76519 6.52932 3.85402 5.90754 3.88735 5.87426C3.88735 5.7743 3.89843 5.75215 3.92063 5.66332C3.93176 5.58557 3.97617 5.19699 4.00951 5.16365C4.00951 5.04154 4.03167 4.95272 4.05392 4.83056C4.07608 4.71952 4.07608 4.64183 4.10941 4.553L4.23157 3.85353C4.23157 3.76465 4.33153 3.16513 4.35368 3.13184C4.35368 3.03189 4.44251 2.49899 4.47579 2.43237C4.47579 2.35462 4.53133 2.01044 4.55354 1.96598C4.55354 1.86608 4.58683 1.68848 4.60908 1.58852C4.60908 1.5219 4.7534 0.700318 4.76448 0.655856C4.76448 0.50046 4.82002 0.311681 4.84222 0.156237C4.84222 0.0674112 4.8533 0.0896176 4.86438 0.0229492H29.013L28.902 0.75571C28.8798 0.866742 28.9131 0.800123 28.8576 0.844536L28.8687 0.900077C28.8354 1.0666 28.7465 1.79941 28.691 1.87711C28.7021 1.97706 28.6022 2.6432 28.5578 2.70982C28.5689 2.82081 28.4689 3.37601 28.4356 3.5092L28.369 3.88671L28.1581 5.04144C28.1692 5.11914 28.0693 5.72979 28.036 5.78533C28.0471 5.95186 27.9804 6.20725 27.9471 6.3849L27.8472 6.9733C27.8361 6.99551 27.8361 6.99551 27.8361 7.01776L27.8249 7.05105C27.8361 7.13987 27.8139 7.35086 27.7584 7.41743C27.7694 7.53954 27.714 7.77273 27.6918 7.89484C27.6696 8.02808 27.5808 8.67201 27.5364 8.72751C27.5474 8.82746 27.4697 9.36036 27.4142 9.42703C27.4253 9.48252 27.3698 9.93773 27.3142 10.0043C27.3364 10.1487 27.2033 10.6927 27.181 10.8926C27.1477 11.0147 27.1366 11.148 27.1144 11.2701L27.0367 11.6586C27.0478 11.7142 26.9811 12.2804 26.9146 12.3692C26.9367 12.4581 26.9035 12.669 26.848 12.7356C26.8591 12.8355 26.8258 12.9466 26.8147 13.0576L26.6926 13.6683C26.7036 13.746 26.6704 14.0013 26.6259 14.0568C26.6371 14.1678 26.5815 14.5565 26.526 14.6342C26.5371 14.7452 26.5038 14.8673 26.4816 14.9784C26.4704 15.0561 26.4483 15.2559 26.4039 15.3115C26.415 15.3781 26.4039 15.4336 26.3928 15.5003C26.3928 15.5335 26.3816 15.5668 26.3706 15.6002C26.3595 15.6668 26.3706 15.6335 26.3373 15.6779C26.3484 15.7557 26.3373 15.8 26.3261 15.8666C26.3261 15.8888 26.3151 15.9333 26.3151 15.9555C26.3039 16.0221 26.3151 15.9888 26.2817 16.0332L26.2152 16.555C26.1707 16.6883 26.2596 16.444 26.204 16.5883C26.204 16.5883 26.1929 16.6105 26.1929 16.5994C26.1929 16.5994 26.1929 16.6106 26.1818 16.6106C26.1929 16.6771 26.1818 16.7327 26.1707 16.7993L26.1263 16.9658C26.1484 17.0547 26.0707 17.521 26.0263 17.5876C26.0375 17.6986 25.9598 18.2205 25.9042 18.2871C25.9153 18.3981 25.8598 18.8089 25.8043 18.8755C25.8154 18.9644 25.7931 19.1642 25.7487 19.2308C25.7598 19.3308 25.7266 19.4529 25.7043 19.5639L25.6266 20.0525C25.6155 20.1302 25.5711 20.441 25.5377 20.5077C25.5599 20.6187 25.5156 20.7631 25.4933 20.8852C25.4712 20.9962 25.4712 21.1517 25.4156 21.2294C25.4267 21.3294 25.3934 21.4404 25.3823 21.5403C25.3712 21.6291 25.3601 21.7624 25.3157 21.8178C25.3379 21.9511 25.2602 22.2286 25.238 22.373C25.2158 22.5173 25.2158 22.7837 25.138 22.8837C25.1491 22.9947 25.0936 23.4055 25.0381 23.4721C25.0492 23.5721 24.9604 24.1272 24.916 24.1827C24.9271 24.3159 24.8494 24.6823 24.8271 24.8377C24.8049 25.0043 24.8382 25.0264 24.6717 25.0376H3.79828V25.0264C3.13209 25.0264 2.46594 25.0264 1.81088 25.0376H0.622864C0.633942 24.9487 0.656149 24.8488 0.678404 24.7488L0.76723 24.1715C0.778308 24.1271 0.800515 23.9273 0.82277 23.9051C0.82277 23.8385 0.900468 23.3277 0.922724 23.2944C0.922724 23.2167 0.944881 23.1057 0.956009 23.039C1.20028 21.6179 1.01155 22.8503 1.30023 20.9739L1.33352 21.0072L1.33342 21.0073ZM6.39628 22.9392H10.1491C11.3149 17.1991 12.8693 8.05033 13.9018 2.04373L10.1824 2.04368C10.2269 3.36489 6.57403 21.951 6.40745 22.9504L6.39633 22.9392H6.39628ZM15.7892 16.866C15.7559 16.9437 15.7448 17.0881 15.7337 17.1879C15.7226 17.2879 15.6782 17.4101 15.6782 17.5211C15.6782 17.5877 15.6449 17.6765 15.6338 17.7431C15.6227 17.8208 15.6005 17.9208 15.5894 18.0096C15.5672 18.0429 15.5116 18.3871 15.5116 18.4648C15.4783 18.5092 15.3895 19.0755 15.3895 19.1754L15.2674 19.7971C15.2452 19.9637 15.1897 20.0969 15.2119 20.3079C15.2451 20.641 15.5338 20.8519 15.8891 20.7964C16.1556 20.7519 16.1334 20.7298 16.311 20.6298C16.3776 20.5188 16.6442 20.2967 16.6219 20.1191C16.6663 20.0525 16.744 19.5418 16.7551 19.4641C16.7885 19.3198 16.8772 18.8756 16.8662 18.7645L16.8772 18.7313C16.8772 18.7201 16.9661 18.4648 16.9439 18.3093L16.9771 18.1983C16.9883 18.165 16.9883 18.1206 16.9994 18.0762C17.0104 17.9984 17.0438 17.9097 17.0215 17.8319C17.0326 17.8098 17.0326 17.8319 17.0437 17.7875L17.0659 17.6876C17.077 17.6098 17.077 17.6098 17.077 17.5432C17.1325 17.4767 17.1547 17.1769 17.1769 17.0658C17.1991 16.9215 17.2769 16.6106 17.2657 16.4885L17.3435 16.1554C17.3656 16.0333 17.399 15.9111 17.3879 15.8001C17.4212 15.7557 17.4212 15.6891 17.41 15.6225C17.51 15.467 17.3546 14.8675 17.2991 14.7009C17.2435 14.5455 16.9548 14.0791 16.8661 14.0347C16.8439 13.9792 16.5996 13.6461 16.5441 13.6128C16.5219 13.5462 16.5441 13.6017 16.4997 13.5462L16.1888 13.1577L16.1111 13.0355C16.0111 12.9134 15.5449 12.3027 15.5004 12.2916C15.4782 12.2139 15.2895 11.9918 15.2229 11.9141C15.1674 11.8475 14.9786 11.581 14.9342 11.5588C14.912 11.5144 14.6455 11.1369 14.6011 11.1147C14.5455 10.9815 14.4457 10.8593 14.3679 10.7261C14.3346 10.6706 14.2902 10.5929 14.2569 10.5151C14.2347 10.4597 14.2014 10.3486 14.1681 10.3042C14.1237 10.0488 14.1015 9.9267 14.1125 9.64914L14.2125 8.93859L14.3791 8.00592C14.4123 7.85053 14.5012 7.45081 14.479 7.31757C14.5345 7.23983 14.5789 6.88457 14.5789 6.77349C14.6234 6.71795 14.7122 6.15171 14.7011 6.07402C14.7788 5.95186 14.8121 5.43003 14.8676 5.2413C14.8897 5.08591 14.9786 4.74168 14.9675 4.60849C14.9897 4.58634 14.9787 4.60849 14.9897 4.56408L15.0341 4.37535C15.0563 4.2976 15.0897 4.20878 15.0786 4.13108C15.1119 4.08667 15.1007 4.10887 15.123 4.04221C15.1341 4.00892 15.1451 3.98671 15.1563 3.95338C15.1784 3.88681 15.2007 3.8424 15.2007 3.76465C15.2562 3.70911 15.3228 3.52038 15.3561 3.43155L15.5338 3.09846C15.5893 3.06512 15.6448 2.9763 15.6892 2.92081C15.7448 2.84306 15.7892 2.80978 15.8558 2.75424C15.9113 2.70982 16.2221 2.49889 16.2333 2.47668C16.3332 2.4434 16.4442 2.3657 16.5552 2.32129C16.6663 2.27682 16.7662 2.23241 16.8883 2.19913C17.1437 2.12143 17.3657 2.08814 17.6433 2.06589C18.4316 2.04373 19.2422 2.06589 20.0415 2.06589C20.8076 2.06589 21.5293 2.13246 21.9401 2.57658C22.0289 2.66541 22.2177 2.92081 22.2732 3.07625C22.3176 3.20949 22.3731 3.3094 22.4064 3.45376C22.4398 3.60916 22.4508 3.75352 22.4508 3.94225C22.4508 4.00887 22.4398 4.13103 22.4287 4.21981C22.4176 4.30863 22.3954 4.41966 22.3954 4.51962C22.3843 4.61957 22.351 4.74168 22.3399 4.84159C22.3287 4.95262 22.3065 5.10806 22.2732 5.19689C22.2732 5.27459 22.24 5.39675 22.2288 5.48557C22.2067 5.59655 22.1844 5.70763 22.1733 5.80754C22.1622 5.84082 22.1178 6.09622 22.1178 6.14063C22.1067 6.21838 22.0845 6.30716 22.0623 6.40706C22.0401 6.51809 22.0178 6.61805 22.0178 6.72903C21.9845 6.82898 21.9734 6.96222 21.9512 7.08433C21.9291 7.22865 21.9068 7.33973 21.8847 7.47292C21.8847 7.55067 21.8402 7.73935 21.8291 7.80601C21.818 7.87263 21.818 7.89484 21.807 7.97259C21.7958 8.02808 21.7736 8.0947 21.7736 8.17239C21.7625 8.25014 21.7403 8.35005 21.7181 8.43887C21.6959 8.53883 21.6737 8.64981 21.6737 8.73863C21.6626 8.80525 21.6404 8.89408 21.6182 8.9829L18.6537 8.99403C18.6537 8.7831 18.7869 8.40559 18.7758 8.20568C18.8314 8.13911 18.8868 7.71714 18.8758 7.61728C18.898 7.58395 18.8869 7.61728 18.898 7.56174L18.9868 6.9733C19.0534 6.89555 19.1089 6.26274 19.1533 6.11838C19.1755 5.96293 19.2421 5.72979 19.2311 5.58543C19.2755 5.51886 19.2755 5.35228 19.3088 5.27459L19.3199 5.16355L19.3532 5.01924C19.4421 4.58624 19.2755 4.20873 18.8203 4.20873C18.4539 4.20873 18.0763 4.43079 17.9654 4.74168C17.9432 4.79722 17.9432 4.83051 17.9209 4.87492C17.8987 4.98595 17.8654 5.1414 17.8654 5.25243C17.8432 5.35238 17.8321 5.41895 17.8099 5.52998C17.7877 5.64102 17.7655 5.72984 17.7655 5.85195L17.721 6.01848L17.6877 6.21833C17.6655 6.36265 17.6322 6.49589 17.6211 6.62918C17.5878 6.65133 17.599 6.718 17.5878 6.77349C17.5767 6.85119 17.5656 6.87345 17.5545 6.94002C17.5434 7.03997 17.499 7.18429 17.499 7.28424C17.4768 7.37306 17.4657 7.45076 17.4434 7.56179C17.4213 7.67278 17.399 7.76165 17.399 7.88376C17.3657 7.92817 17.3213 8.25014 17.3102 8.36117C17.2991 8.43887 17.2769 8.74976 17.2991 8.82751C17.3213 8.89408 17.2769 8.84967 17.3324 8.88305C17.2769 9.03844 17.4767 9.42708 17.5655 9.58253C17.6211 9.67135 17.5545 9.61581 17.6433 9.66027C17.6322 9.71576 17.6322 9.67135 17.6433 9.71576C17.6433 9.73797 17.6654 9.76018 17.6766 9.78238L18.2095 10.5041C18.2539 10.5373 18.1762 10.5041 18.2539 10.5373C18.2539 10.6039 18.5204 10.9149 18.5759 10.9593L18.9756 11.4256C18.9756 11.4367 18.9534 11.4367 19.0089 11.5144L19.5086 12.1362L19.7861 12.4804C19.8638 12.5804 19.8305 12.5582 19.8971 12.5915C19.9082 12.658 20.0637 12.8468 20.1081 12.9246C20.1969 13.0578 20.2746 13.2465 20.3412 13.2798C20.3191 13.3464 20.3301 13.302 20.3634 13.3798C20.3856 13.4131 20.3856 13.4242 20.4078 13.4797L20.5521 13.8905C20.5966 14.0571 20.5633 14.0682 20.6187 14.1126C20.5632 14.2459 20.5966 14.4457 20.5966 14.59C20.5855 14.6789 20.5744 14.701 20.5744 14.8121C20.5522 14.8454 20.4744 15.3894 20.4744 15.4782C20.4411 15.5116 20.4744 15.4672 20.4523 15.5227C20.4523 15.5338 20.4411 15.6004 20.4411 15.6004C20.4301 15.6782 20.419 15.7225 20.419 15.7891C20.3968 15.8335 20.319 16.2888 20.319 16.3554C20.2969 16.4442 20.2746 16.5775 20.2635 16.6885C20.2524 16.8106 20.208 16.9217 20.208 17.066C20.1858 17.0882 20.1858 17.1437 20.1747 17.1881C20.1635 17.2547 20.1635 17.2881 20.1525 17.3435C20.1303 17.4546 20.1192 17.5767 20.097 17.6767C20.097 17.7877 20.0414 17.9431 20.0414 18.0763C20.0193 18.1097 19.9859 18.3317 19.9859 18.3983C19.9637 18.5538 19.9193 18.7092 19.9082 18.8757C19.886 18.9313 19.8304 19.2643 19.8304 19.3531C19.7972 19.3753 19.7972 19.4641 19.7972 19.5086C19.786 19.5863 19.775 19.6196 19.7638 19.6973C19.7417 19.8305 19.7083 19.9749 19.6973 20.1081C19.6751 20.1636 19.6528 20.2858 19.6417 20.3524C19.6196 20.4301 19.5862 20.5522 19.5751 20.6411L19.3864 21.174C19.2864 21.4183 19.1643 21.5626 19.1199 21.6736C19.0978 21.6848 18.9645 21.8735 18.9312 21.9179C18.8868 21.9734 18.8757 21.9845 18.8313 22.04L18.7091 22.1733C18.6203 22.2954 18.265 22.5508 18.0985 22.6174C18.0096 22.6507 17.9319 22.6729 17.8431 22.7284C17.7431 22.7395 17.3546 22.8727 16.9993 22.8839L16.0111 22.906C15.8224 22.906 15.7003 22.9282 15.5337 22.9282L14.2458 22.9283C14.1237 22.9283 14.1015 22.9061 13.9904 22.9061C13.9349 22.9061 13.7795 22.8728 13.7129 22.8617C13.6684 22.8506 13.6352 22.8506 13.5796 22.8395C13.5241 22.8284 13.5019 22.8062 13.4353 22.8062C13.0467 22.7174 12.9357 22.5841 12.7358 22.4398C12.7025 22.4177 12.7247 22.4287 12.7025 22.4177C12.6692 22.3621 12.7025 22.4065 12.6581 22.351C12.647 22.3289 12.6359 22.3289 12.6248 22.3066L12.2473 21.5961C12.2362 21.4961 12.2029 21.4073 12.1917 21.3074C12.1806 21.1964 12.2029 21.0965 12.1806 20.9966C12.214 20.9299 12.2584 20.4192 12.2695 20.297C12.2917 20.1194 12.3805 19.753 12.3694 19.6087C12.4139 19.5421 12.4471 19.3089 12.436 19.2312L12.4471 19.1978C12.4471 19.1978 12.5471 18.8315 12.5248 18.6871C12.5693 18.6316 12.6803 17.9766 12.6692 17.8766L12.7136 17.7101C12.7247 17.6324 12.7469 17.588 12.7247 17.5214L12.7469 17.4548C12.7469 17.4437 12.758 17.3992 12.758 17.3882C12.7691 17.3438 12.7691 17.2994 12.7801 17.2549C12.7913 17.1661 12.8246 17.0662 12.8135 16.9773C12.869 16.8997 12.9245 16.5333 12.9134 16.4222C12.9578 16.3557 13.0467 15.7338 13.0688 15.6006C13.1354 15.5451 14.4678 15.5784 14.5455 15.5784H16.0556L15.9446 16.2335L15.9001 16.4889C15.878 16.611 15.8335 16.7331 15.8335 16.8664H15.7891L15.7892 16.866Z" fill="#231F20"/>
</svg>
