<svg width="18" height="20" viewBox="0 0 18 20" fill="none" xmlns="http://www.w3.org/2000/svg">
<path d="M16.079 8.5C16.079 10.8927 14.6557 13.4031 12.9789 15.3522C12.148 16.3181 11.2745 17.1228 10.5249 17.6816C10.1497 17.9614 9.81359 18.1734 9.53605 18.3132C9.24274 18.4609 9.06874 18.5 9.00009 18.5V19.5C9.31039 19.5 9.65743 19.3717 9.98584 19.2063C10.33 19.033 10.7163 18.7863 11.1226 18.4834C11.9362 17.8768 12.8627 17.0207 13.737 16.0044C15.4708 13.989 17.079 11.2495 17.079 8.5H16.079ZM9.00009 18.5C8.93144 18.5 8.75743 18.4609 8.46413 18.3132C8.18659 18.1734 7.85049 17.9614 7.47524 17.6816C6.72568 17.1228 5.85219 16.3181 5.02124 15.3522C3.34445 13.4031 1.92114 10.8927 1.92114 8.5H0.921143C0.921143 11.2495 2.52941 13.989 4.26315 16.0044C5.13746 17.0207 6.06397 17.8768 6.87757 18.4834C7.2839 18.7863 7.67017 19.033 8.01434 19.2063C8.34275 19.3717 8.68979 19.5 9.00009 19.5V18.5ZM1.92114 8.5C1.92114 4.63893 5.08555 1.5 9.00009 1.5V0.5C4.54316 0.5 0.921143 4.0768 0.921143 8.5H1.92114ZM9.00009 1.5C12.9146 1.5 16.079 4.63893 16.079 8.5H17.079C17.079 4.0768 13.457 0.5 9.00009 0.5V1.5Z" fill="#747474"/>
<circle r="2.84211" transform="matrix(-1 0 0 1 9.00006 8.10529)" stroke="#747474"/>
</svg>
