<svg width="18" height="22" viewBox="0 0 18 22" fill="none" xmlns="http://www.w3.org/2000/svg">
<path d="M16.25 9.56315C16.25 12.0094 14.7887 14.6084 13.0314 16.6511C12.164 17.6595 11.2537 18.4975 10.4767 19.0767C10.0876 19.3668 9.74394 19.5829 9.46579 19.723C9.32699 19.7929 9.21389 19.8391 9.12675 19.8667C9.03536 19.8957 8.99692 19.8965 9 19.8965V21.3965C9.38124 21.3965 9.78602 21.2412 10.1405 21.0627C10.5186 20.8723 10.9374 20.6042 11.3733 20.2793C12.2463 19.6285 13.236 18.7133 14.1686 17.6294C16.0113 15.4874 17.75 12.5447 17.75 9.56315H16.25ZM9 19.8965C9.00309 19.8965 8.96464 19.8957 8.87325 19.8667C8.78611 19.8391 8.67301 19.7929 8.53421 19.723C8.25606 19.5829 7.91244 19.3668 7.52326 19.0767C6.74629 18.4975 5.83605 17.6595 4.96856 16.6511C3.21128 14.6084 1.75 12.0094 1.75 9.56315H0.25C0.25 12.5447 1.98872 15.4874 3.83144 17.6294C4.76395 18.7133 5.75371 19.6285 6.62674 20.2793C7.06256 20.6042 7.48144 20.8723 7.85954 21.0627C8.21398 21.2412 8.61876 21.3965 9 21.3965V19.8965ZM1.75 9.56315C1.75 5.6125 4.98851 2.39648 9 2.39648V0.896484C4.17493 0.896484 0.25 4.7693 0.25 9.56315H1.75ZM9 2.39648C13.0115 2.39648 16.25 5.6125 16.25 9.56315H17.75C17.75 4.7693 13.8251 0.896484 9 0.896484V2.39648Z" fill="#6D2EFF"/>
<circle r="3" transform="matrix(-1 0 0 1 9 9.14648)" stroke="#6D2EFF" stroke-width="1.5"/>
</svg>
