<svg width="99" height="28" viewBox="0 0 99 28" fill="none" xmlns="http://www.w3.org/2000/svg">
<path d="M13.503 27.006C20.9605 27.006 27.006 20.9605 27.006 13.503C27.006 6.0455 20.9605 0 13.503 0C6.0455 0 0 6.0455 0 13.503C0 20.9605 6.0455 27.006 13.503 27.006Z" fill="#1F3666"/>
<path d="M14.4934 27.006C21.9509 27.006 27.9964 20.9605 27.9964 13.503C27.9964 6.0455 21.9509 0 14.4934 0C7.03586 0 0.990356 6.0455 0.990356 13.503C0.990356 20.9605 7.03586 27.006 14.4934 27.006Z" fill="#20AAE2"/>
<path d="M15.1315 9.88495C15.2893 10.1299 15.4053 10.3995 15.4746 10.6826C15.6143 11.0056 15.6682 11.3591 15.6311 11.709C15.5469 12.1605 15.2338 12.5127 15.1616 12.4796C15.0893 12.4465 15.3964 11.9077 15.3753 11.098C15.3434 10.6853 15.2615 10.2779 15.1315 9.88495Z" fill="#20AAE2"/>
<path d="M16.7178 7.40466H12.573V7.54613H16.7178V7.40466Z" fill="#20AAE2"/>
<path d="M16.7178 6.83276H12.573V6.97424H16.7178V6.83276Z" fill="#20AAE2"/>
<path d="M16.7178 7.11874H12.573V7.26022H16.7178V7.11874Z" fill="#20AAE2"/>
<path d="M24.0773 6.97723H19.9325V7.54613H24.0773V6.97723Z" fill="#20AAE2"/>
<path d="M24.0773 21.5037H19.9325V21.6451H24.0773V21.5037Z" fill="#20AAE2"/>
<path d="M24.0773 21.2207H19.9325V21.3622H24.0773V21.2207Z" fill="#20AAE2"/>
<path d="M24.0773 20.9348H19.9325V21.0763H24.0773V20.9348Z" fill="#20AAE2"/>
<path d="M8.68095 18.0271H4.53613V18.596H8.68095V18.0271Z" fill="#20AAE2"/>
<path d="M24.1886 11.4562C24.1886 11.91 24.5565 12.2779 25.0103 12.2779C25.4641 12.2779 25.832 11.91 25.832 11.4562V6.99833C25.832 6.54449 25.4641 6.17659 25.0103 6.17659C24.5565 6.17659 24.1886 6.54449 24.1886 6.99833V11.4562Z" fill="#1F3666"/>
<path d="M22.0666 10.6495H22.0696C22.2458 10.6495 22.3887 10.5066 22.3887 10.3304V8.12707C22.3887 7.95085 22.2458 7.808 22.0696 7.808H22.0666C21.8904 7.808 21.7475 7.95085 21.7475 8.12707V10.3304C21.7475 10.5066 21.8904 10.6495 22.0666 10.6495Z" fill="#1F3666"/>
<path d="M23.2737 11.5495C23.0908 11.5401 22.919 11.459 22.7956 11.3238C22.6722 11.1885 22.6071 11.0101 22.6145 10.8271V7.62744C22.6057 7.53557 22.6162 7.44289 22.6453 7.35533C22.6744 7.26777 22.7215 7.18726 22.7836 7.11897C22.8457 7.05068 22.9213 6.99612 23.0057 6.95878C23.0901 6.92145 23.1814 6.90216 23.2737 6.90216C23.3659 6.90216 23.4572 6.92145 23.5416 6.95878C23.626 6.99612 23.7016 7.05068 23.7637 7.11897C23.8258 7.18726 23.8729 7.26777 23.902 7.35533C23.9311 7.44289 23.9416 7.53557 23.9329 7.62744V10.8271C23.9402 11.0101 23.8751 11.1885 23.7517 11.3238C23.6283 11.459 23.4565 11.5401 23.2737 11.5495Z" fill="#1F3666"/>
<path d="M21.5428 11.107C21.5428 9.90302 21.5498 8.69901 21.5639 7.495H18.6441C18.0604 7.5494 17.4935 7.71988 16.9766 7.99642C16.4597 8.27296 16.0033 8.64998 15.6341 9.10536C13.8792 11.2124 14.406 14.1983 14.4481 14.4181H17.5635C17.5635 14.2826 17.5635 14.0749 17.5635 13.8161C17.5635 13.491 17.5635 13.2743 17.5635 13.2291C17.5635 12.898 17.6659 11.8565 18.1655 11.3539C18.4093 11.1161 18.9903 11.107 20.1401 11.098L21.5428 11.107Z" fill="#1F3666"/>
<path d="M11.8413 24.9351H14.0808C14.4066 24.9351 14.6708 24.671 14.6708 24.3451V23.9388C14.6708 23.6129 14.4066 23.3488 14.0808 23.3488H11.8413C11.5155 23.3488 11.2514 23.6129 11.2514 23.9388V24.3451C11.2514 24.671 11.5155 24.9351 11.8413 24.9351Z" fill="#1F3666"/>
<path d="M8.21142 16.3656H11.0138C11.4161 16.3656 11.7422 16.0394 11.7422 15.6371V13.2261C11.7422 12.8238 11.4161 12.4977 11.0138 12.4977H8.21142C7.80912 12.4977 7.48299 12.8238 7.48299 13.2261V15.6371C7.48299 16.0394 7.80912 16.3656 8.21142 16.3656Z" fill="#1F3666"/>
<path d="M7.71468 11.8445H11.5073C12.0227 11.8445 12.4404 11.4267 12.4404 10.9113V10.9083C12.4404 10.393 12.0227 9.97522 11.5073 9.97522H7.71468C7.19933 9.97522 6.78157 10.393 6.78157 10.9083V10.9113C6.78157 11.4267 7.19933 11.8445 7.71468 11.8445Z" fill="#1F3666"/>
<path d="M6.31507 9.72543H12.9913C13.3022 9.72543 13.5542 9.47343 13.5542 9.16256C13.5542 8.85169 13.3022 8.59968 12.9913 8.59968H6.31507C6.0042 8.59968 5.75219 8.85169 5.75219 9.16256C5.75219 9.47343 6.0042 9.72543 6.31507 9.72543Z" fill="#1F3666"/>
<path d="M8.80445 8.21436H10.5051C10.821 8.21436 11.077 7.9583 11.077 7.64245V6.30599C11.077 5.99014 10.821 5.73409 10.5051 5.73409H8.80445C8.4886 5.73409 8.23254 5.99014 8.23254 6.30599V7.64245C8.23254 7.9583 8.4886 8.21436 8.80445 8.21436Z" fill="#1F3666"/>
<path d="M14.6016 16.6004H17.3769C17.7975 16.6004 18.1384 16.2601 18.1384 15.8403C18.1384 15.4206 17.7975 15.0803 17.3769 15.0803H14.6016C14.1811 15.0803 13.8401 15.4206 13.8401 15.8403C13.8401 16.2601 14.1811 16.6004 14.6016 16.6004Z" fill="#1F3666"/>
<path d="M17.5094 16.8743C17.5705 18.0475 17.3453 19.2179 16.8532 20.2846C16.4144 21.3044 15.6628 22.1582 14.707 22.7228C14.0877 23.0578 13.3895 23.2196 12.686 23.1909C11.9825 23.1623 11.2997 22.9444 10.7097 22.5602C10.1213 22.1556 9.62491 21.6315 9.25283 21.0221C8.82718 20.3375 8.52177 19.5852 8.34982 18.7977C8.21436 18.2134 8.14569 17.6156 8.14514 17.0157H11.2154C11.1996 17.5591 11.3023 18.0994 11.5164 18.599C11.6543 18.985 11.9297 19.3065 12.29 19.502C12.4547 19.5777 12.636 19.6098 12.8167 19.5953C13.058 19.588 13.295 19.5295 13.512 19.4238C13.9966 19.1769 14.4632 18.1927 14.4722 16.8953L17.5094 16.8743Z" fill="#1F3666"/>
<path d="M25.7117 12.9883C25.6214 12.9883 25.492 13.3375 25.2391 14.0388C25.1456 14.2725 25.0829 14.5174 25.0525 14.7672C25.0221 14.9559 25.0323 15.1488 25.0826 15.3331C25.1123 15.4402 25.1633 15.5403 25.2326 15.6272C25.302 15.7141 25.3881 15.7861 25.486 15.8388C25.5706 15.8703 25.6606 15.8846 25.7508 15.881C25.8414 15.8795 25.9306 15.859 26.0127 15.8208C26.1117 15.7505 26.1956 15.6609 26.2592 15.5575C26.3228 15.454 26.3649 15.3388 26.3829 15.2187C26.4176 15.0368 26.4176 14.8499 26.3829 14.6679C26.3498 14.4498 26.2902 14.2365 26.2054 14.0328C25.9254 13.3375 25.787 12.9883 25.7117 12.9883Z" fill="#1F3666"/>
<path opacity="0.46" d="M9.03303 4.1207C8.71397 5.92672 12.8287 6.52873 14.9658 10.812C16.9585 14.8033 15.1886 17.8886 16.6093 18.611C18.7163 19.6886 26.2414 14.6317 25.3835 8.79829C24.7574 4.52104 19.9835 2.18224 16.6093 1.75783C13.3585 1.32438 9.33705 2.40197 9.03303 4.1207Z" fill="#3ABEE9"/>
<path opacity="0.22" d="M2.83533 13.2832C2.87747 16.9615 5.40891 21.4946 9.04804 21.7625C11.5464 21.9491 13.9875 20.0829 14.9718 18.5719C15.3093 18.0367 15.5783 17.4613 15.7725 16.8592C15.9547 16.0214 16.0145 15.1616 15.95 14.3067C15.9118 13.8754 15.8455 13.447 15.7514 13.0244C15.6379 12.5386 15.4921 12.0609 15.3149 11.5946C14.7825 10.3042 14.0057 9.1288 13.0273 8.13308C12.1846 7.36143 11.2884 6.6503 10.3454 6.00498C9.96686 5.73642 9.6231 5.42199 9.32195 5.06886C9.20626 4.93643 9.12099 4.78026 9.07212 4.61134C8.99085 4.31034 9.07212 4.15381 9.03299 4.12672C8.82229 3.96117 2.77212 7.47689 2.83533 13.2832Z" fill="#B3CEE2"/>
<path opacity="0.46" d="M5.49937 20.0047C5.43315 20.0709 6.12546 20.9679 7.10372 21.9191C8.4191 23.2014 9.70138 24.4475 11.7061 25.1248C13.4978 25.701 15.419 25.7397 17.2325 25.2361C18.0753 24.9984 23.5265 23.4091 25.4499 18.3672C27.7495 12.3472 23.7492 5.75822 22.4549 5.94183C21.0342 6.14049 20.5435 14.8395 17.6659 17.38C17.5245 17.5034 16.6847 18.2378 16.2903 18.003C15.9653 17.8104 15.9893 16.9796 15.9893 16.3415C15.9893 16.2151 15.9893 16.0104 15.9893 15.6522C15.9893 15.4415 15.9893 14.9087 15.9893 14.9087C15.9893 14.9087 15.9893 15.2097 15.9472 15.6642C15.9291 15.8719 15.9111 16.0887 15.8659 16.3535C15.7364 17.0899 15.4633 17.7935 15.0622 18.4244C14.6989 18.9925 14.2489 19.5003 13.7288 19.9295C13.1609 20.4567 12.5101 20.8869 11.8024 21.2027C11.4532 21.3502 9.50272 22.187 7.58833 21.4375C6.28499 20.9408 5.55957 19.9415 5.49937 20.0047Z" fill="#2E60AA"/>
<path d="M38.3417 18.8337C38.8685 21.1485 40.53 22.1628 43.1999 22.1628C45.8698 22.1628 46.9986 21.1123 46.9986 19.4237C46.9986 17.5485 45.8879 16.7327 41.9417 15.8117C35.6658 14.3398 34.1157 12.0551 34.1157 8.94277C34.1157 4.92437 37.1257 2.19427 42.5829 2.19427C48.7053 2.19427 51.1434 5.48424 51.4745 8.85849H46.4508C46.21 7.43775 45.4243 5.89662 42.4504 5.89662C40.4277 5.89662 39.2056 6.73341 39.2056 8.37086C39.2056 10.0083 40.1869 10.6254 43.9103 11.4893C50.6197 13.0695 52.0886 15.5648 52.0886 18.8157C52.0886 23.0297 48.9039 25.9163 42.8086 25.9163C36.9541 25.9163 33.8718 23.0357 33.318 18.8307L38.3417 18.8337Z" fill="#1F3666"/>
<path d="M61.5552 25.5943L53.4281 2.5314H58.786L62.2084 13.196C63.2498 16.4167 64.0445 19.1528 64.5743 21.5097H64.6405C65.113 19.3575 66.013 16.5401 67.1117 13.2712L70.7087 2.54344H75.7957L67.4368 25.5943H61.5552Z" fill="#1F3666"/>
<path d="M78.5829 2.5314H83.5103V12.8227C85.0304 11.0468 89.7772 5.84545 92.6909 2.5314H98.6628L89.3979 12.1153L98.9999 25.5943H93.019L85.9424 15.3602L83.5103 17.6869V25.5943H78.5829V2.5314Z" fill="#1F3666"/>
</svg>
