<svg width="25" height="24" viewBox="0 0 25 24" fill="none" xmlns="http://www.w3.org/2000/svg">
<path d="M3.42082 7.04494L5.78325 4.26564L7.65931 3.22339L10.5081 3.70975L12.94 5.2384L15.7888 3.70975H19.4019L22.5982 6.62804V10.2412L21.139 13.4374L14.6076 20.1772L12.94 20.9416L11.2029 20.1772L8.70156 17.3979L4.25464 13.4374L2.93445 10.2412L3.42082 7.04494Z" fill="#B30A0A"/>
<path d="M4.59305 13.5594L10.7541 20.0524C11.937 21.2991 13.9235 21.2991 15.1065 20.0524L21.2675 13.5594C23.4845 11.2229 23.4845 7.43471 21.2675 5.09824C19.0505 2.76177 15.4561 2.76177 13.2391 5.09824V5.09824C13.0712 5.27514 12.7894 5.27514 12.6215 5.09824V5.09824C10.4045 2.76177 6.81005 2.76177 4.59305 5.09824C2.37605 7.43471 2.37605 11.2229 4.59305 13.5594Z" stroke="#B30A0A" stroke-width="1.5"/>
</svg>
