<svg width="60" height="60" viewBox="0 0 60 60" fill="none" xmlns="http://www.w3.org/2000/svg">
<rect x="0.59375" y="0.117676" width="59" height="59" rx="9" fill="#6D2EFF"/>
<path d="M16.0878 16.7906C15.6816 16.7093 15.2865 16.9727 15.2052 17.3789C15.124 17.7851 15.3874 18.1802 15.7936 18.2614L16.0878 16.7906ZM19.9036 22.4796L19.1573 22.5543L19.158 22.5616L19.1589 22.569L19.9036 22.4796ZM43.1714 26.7825L42.4438 26.6006L43.1714 26.7825ZM41.7067 32.6412L40.9791 32.4593L41.7067 32.6412ZM15.7936 18.2614L17.1478 18.5323L17.4419 17.0614L16.0878 16.7906L15.7936 18.2614ZM24.2735 37.3828H36.5944V35.8828H24.2735V37.3828ZM42.4343 32.8231L43.899 26.9644L42.4438 26.6006L40.9791 32.4593L42.4343 32.8231ZM18.9543 20.5246L19.1573 22.5543L20.6499 22.405L20.4469 20.3754L18.9543 20.5246ZM19.1589 22.569L20.539 34.0697L22.0283 33.891L20.6482 22.3903L19.1589 22.569ZM39.8119 21.7296H19.9036V23.2296H39.8119V21.7296ZM43.899 26.9644C44.5638 24.3054 42.5527 21.7296 39.8119 21.7296V23.2296C41.5768 23.2296 42.8719 24.8883 42.4438 26.6006L43.899 26.9644ZM36.5944 37.3828C39.3566 37.3828 41.7644 35.5029 42.4343 32.8231L40.9791 32.4593C40.4761 34.4714 38.6683 35.8828 36.5944 35.8828V37.3828ZM24.2735 35.8828C23.1288 35.8828 22.1647 35.0275 22.0283 33.891L20.539 34.0697C20.7659 35.9601 22.3695 37.3828 24.2735 37.3828V35.8828ZM17.1478 18.5323C18.1224 18.7272 18.8554 19.5356 18.9543 20.5246L20.4469 20.3754C20.2824 18.7304 19.063 17.3856 17.4419 17.0614L17.1478 18.5323Z" fill="white"/>
<path d="M33.8579 32.2628H24.8241" stroke="white" stroke-width="1.5" stroke-linecap="round" stroke-linejoin="round"/>
<circle cx="25.1402" cy="41.5865" r="2.12298" fill="white"/>
<circle cx="37.8782" cy="41.5865" r="2.12298" fill="white"/>
</svg>
